# xmcd
#
# Track frame offsets:
#	150
#	18363
#	31063
#	48725
#	67388
#	84863
#	98488
#	112975
#	125738
#	143725
#	162113
#	176650
#	194725
#	211513
#	228638
#	242975
#	261400
#	276975
#	292200
#	313988
#
# Disc length: 4369 seconds
#
# Revision: 0
# Processed by: cddbd v1.4PL0 Copyright (c) Steve Scherf et al.
# Submitted via: audiograbber 1.81.03
#
DISCID=32110f14
DTITLE=Western Swingers - Bestefars Stall
DYEAR=1900
DGENRE=Country
TTITLE0=Bestefars Stall
TTITLE1=Tonene Som Kom Til USA
TTITLE2=Mammas Lille Gutt
TTITLE3=Mens Toget Drar Forbi
TTITLE4=Tida Leger Alle Sår
TTITLE5=Dans På Lokalet
TTITLE6=Narkomanen
TTITLE7=Se Rett Frem
TTITLE8=Gårdsnavnet
TTITLE9=Tenk Om Jeg Fikk Være Kjæresten Din
TTITLE10=Snus-Stopp
TTITLE11=AsfaltCowboyen
TTITLE12=Cowboy - Line
TTITLE13=Krigsseieren
TTITLE14=Trailerjenta
TTITLE15=Cowboysangen Vår
TTITLE16=Et Sekund Av Evighet
TTITLE17=Gylden Ring
TTITLE18=Kubikkhesten
TTITLE19=Sin Egen Stil
EXTD=
EXTT0=
EXTT1=
EXTT2=
EXTT3=
EXTT4=
EXTT5=
EXTT6=
EXTT7=
EXTT8=
EXTT9=
EXTT10=
EXTT11=
EXTT12=
EXTT13=
EXTT14=
EXTT15=
EXTT16=
EXTT17=
EXTT18=
EXTT19=
PLAYORDER=
